<svg width="25" height="25" viewBox="0 0 25 25" fill="none" xmlns="http://www.w3.org/2000/svg">
<path d="M0 12.4999C0 19.4035 5.59644 24.9999 12.5 24.9999C19.4036 24.9999 25 19.4035 25 12.4999C25 5.59638 19.4036 -6.10352e-05 12.5 -6.10352e-05C5.59644 -6.10352e-05 0 5.59638 0 12.4999Z" fill="#1877F2"/>
<path d="M18.75 12.4999C18.75 9.06244 15.9375 6.24994 12.5 6.24994C9.0625 6.24994 6.25 9.06244 6.25 12.4999C6.25 15.6249 8.51562 18.2031 11.4844 18.6718V14.2968H9.92187V12.4999H11.4844V11.0937C11.4844 9.53119 12.4219 8.67181 13.8281 8.67181C14.5313 8.67181 15.2344 8.82806 15.2344 8.82806V10.3906H14.4531C13.6719 10.3906 13.4375 10.8593 13.4375 11.3281V12.4999H15.1562L14.8438 14.2968H13.3594V18.7499C16.4844 18.2812 18.75 15.6249 18.75 12.4999Z" fill="white"/>
</svg>
