<svg width="25" height="26" viewBox="0 0 25 26" fill="none" xmlns="http://www.w3.org/2000/svg">
<path d="M0 12.7726C0 19.6762 5.59644 25.2726 12.5 25.2726C19.4036 25.2726 25 19.6762 25 12.7726C25 5.86909 19.4036 0.272644 12.5 0.272644C5.59644 0.272644 0 5.86909 0 12.7726Z" fill="#231E1B"/>
<path fill-rule="evenodd" clip-rule="evenodd" d="M12.4809 6.67264C9.04052 6.67264 6.25 9.46316 6.25 12.9035C6.25 15.6558 8.04664 17.9876 10.4931 18.8286C10.7989 18.8668 10.9136 18.6757 10.9136 18.5228C10.9136 18.3699 10.9136 17.9876 10.9136 17.4525C9.19342 17.8347 8.81116 16.6115 8.81116 16.6115C8.54358 15.8852 8.12309 15.694 8.12309 15.694C7.54969 15.3118 8.16131 15.3118 8.16131 15.3118C8.77294 15.35 9.11697 15.9616 9.11697 15.9616C9.69037 16.9173 10.5696 16.6497 10.9136 16.4968C10.9518 16.0763 11.143 15.8087 11.2959 15.6558C9.91972 15.5029 8.46713 14.9677 8.46713 12.5595C8.46713 11.8714 8.69648 11.3362 9.11697 10.8775C9.07875 10.7629 8.84939 10.113 9.19342 9.27203C9.19342 9.27203 9.72859 9.11912 10.9136 9.92187C11.4106 9.76897 11.9457 9.73074 12.4809 9.73074C13.0161 9.73074 13.5512 9.80719 14.0482 9.92187C15.2332 9.11912 15.7683 9.27203 15.7683 9.27203C16.1124 10.113 15.883 10.7629 15.8448 10.9158C16.2271 11.3362 16.4946 11.9096 16.4946 12.5977C16.4946 15.006 15.042 15.5029 13.6659 15.6558C13.8953 15.847 14.0864 16.2292 14.0864 16.8026C14.0864 17.6436 14.0864 18.2934 14.0864 18.5228C14.0864 18.6757 14.2011 18.8668 14.5069 18.8286C16.9916 17.9876 18.75 15.6558 18.75 12.9035C18.7118 9.46316 15.9213 6.67264 12.4809 6.67264Z" fill="white"/>
</svg>
