<svg width="25" height="26" viewBox="0 0 25 26" fill="none" xmlns="http://www.w3.org/2000/svg">
<path d="M0 12.7726C0 19.6761 5.59644 25.2726 12.5 25.2726C19.4036 25.2726 25 19.6761 25 12.7726C25 5.86902 19.4036 0.272583 12.5 0.272583C5.59644 0.272583 0 5.86902 0 12.7726Z" fill="#F00073"/>
<path d="M12.5 7.46008C14.2188 7.46008 14.4531 7.46008 15.1562 7.46008C15.7812 7.46008 16.0938 7.61633 16.3281 7.69446C16.6406 7.85071 16.875 7.92883 17.1094 8.16321C17.3438 8.39758 17.5 8.63196 17.5781 8.94446C17.6562 9.17883 17.7344 9.49133 17.8125 10.1163C17.8125 10.8195 17.8125 10.9757 17.8125 12.7726C17.8125 14.5695 17.8125 14.7257 17.8125 15.4288C17.8125 16.0538 17.6562 16.3663 17.5781 16.6007C17.4219 16.9132 17.3438 17.1476 17.1094 17.382C16.875 17.6163 16.6406 17.7726 16.3281 17.8507C16.0938 17.9288 15.7812 18.007 15.1562 18.0851C14.4531 18.0851 14.2969 18.0851 12.5 18.0851C10.7031 18.0851 10.5469 18.0851 9.84375 18.0851C9.21875 18.0851 8.90625 17.9288 8.67188 17.8507C8.35938 17.6945 8.125 17.6163 7.89063 17.382C7.65625 17.1476 7.5 16.9132 7.42188 16.6007C7.34375 16.3663 7.26562 16.0538 7.1875 15.4288C7.1875 14.7257 7.1875 14.5695 7.1875 12.7726C7.1875 10.9757 7.1875 10.8195 7.1875 10.1163C7.1875 9.49133 7.34375 9.17883 7.42188 8.94446C7.57813 8.63196 7.65625 8.39758 7.89063 8.16321C8.125 7.92883 8.35938 7.77258 8.67188 7.69446C8.90625 7.61633 9.21875 7.53821 9.84375 7.46008C10.5469 7.46008 10.7813 7.46008 12.5 7.46008ZM12.5 6.28821C10.7031 6.28821 10.5469 6.28821 9.84375 6.28821C9.14063 6.28821 8.67188 6.44446 8.28125 6.60071C7.89063 6.75696 7.5 6.99133 7.10938 7.38196C6.71875 7.77258 6.5625 8.08508 6.32813 8.55383C6.17188 8.94446 6.09375 9.41321 6.01562 10.1163C6.01562 10.8195 6.01562 11.0538 6.01562 12.7726C6.01562 14.5695 6.01562 14.7257 6.01562 15.4288C6.01562 16.132 6.17188 16.6007 6.32813 16.9913C6.48438 17.382 6.71875 17.7726 7.10938 18.1632C7.5 18.5538 7.8125 18.7101 8.28125 18.9445C8.67188 19.1007 9.14063 19.1788 9.84375 19.257C10.5469 19.257 10.7813 19.257 12.5 19.257C14.2188 19.257 14.4531 19.257 15.1562 19.257C15.8594 19.257 16.3281 19.1007 16.7188 18.9445C17.1094 18.7882 17.5 18.5538 17.8906 18.1632C18.2812 17.7726 18.4375 17.4601 18.6719 16.9913C18.8281 16.6007 18.9062 16.132 18.9844 15.4288C18.9844 14.7257 18.9844 14.4913 18.9844 12.7726C18.9844 11.0538 18.9844 10.8195 18.9844 10.1163C18.9844 9.41321 18.8281 8.94446 18.6719 8.55383C18.5156 8.16321 18.2812 7.77258 17.8906 7.38196C17.5 6.99133 17.1875 6.83508 16.7188 6.60071C16.3281 6.44446 15.8594 6.36633 15.1562 6.28821C14.4531 6.28821 14.2969 6.28821 12.5 6.28821Z" fill="white"/>
<path d="M12.5 9.41321C10.625 9.41321 9.14062 10.8976 9.14062 12.7726C9.14062 14.6476 10.625 16.132 12.5 16.132C14.375 16.132 15.8594 14.6476 15.8594 12.7726C15.8594 10.8976 14.375 9.41321 12.5 9.41321ZM12.5 14.9601C11.3281 14.9601 10.3125 14.0226 10.3125 12.7726C10.3125 11.6007 11.25 10.5851 12.5 10.5851C13.6719 10.5851 14.6875 11.5226 14.6875 12.7726C14.6875 13.9445 13.6719 14.9601 12.5 14.9601Z" fill="white"/>
<path d="M15.9375 10.1163C16.369 10.1163 16.7188 9.76656 16.7188 9.33508C16.7188 8.90361 16.369 8.55383 15.9375 8.55383C15.506 8.55383 15.1562 8.90361 15.1562 9.33508C15.1562 9.76656 15.506 10.1163 15.9375 10.1163Z" fill="white"/>
</svg>
